<mxfile host="app.diagrams.net" agent="Mozilla/5.0 (Macintosh; Intel Mac OS X 10_15_7) AppleWebKit/537.36 (KHTML, like Gecko) Chrome/131.0.0.0 Safari/537.36" version="24.8.6">
  <diagram name="第 1 页" id="O4erLbzWSoxCILXPbrTr">
    <mxGraphModel dx="791" dy="449" grid="1" gridSize="10" guides="1" tooltips="1" connect="1" arrows="1" fold="1" page="1" pageScale="1" pageWidth="1600" pageHeight="1200" math="0" shadow="0">
      <root>
        <mxCell id="0" />
        <mxCell id="1" parent="0" />
        <mxCell id="-PEql9k6udoX26iFVSh2-1" value="fe" style="rounded=1;whiteSpace=wrap;html=1;" vertex="1" parent="1">
          <mxGeometry x="450" y="170" width="120" height="60" as="geometry" />
        </mxCell>
        <mxCell id="-PEql9k6udoX26iFVSh2-3" value="be" style="rounded=1;whiteSpace=wrap;html=1;" vertex="1" parent="1">
          <mxGeometry x="380" y="270" width="60" height="60" as="geometry" />
        </mxCell>
        <mxCell id="-PEql9k6udoX26iFVSh2-5" value="be" style="rounded=1;whiteSpace=wrap;html=1;" vertex="1" parent="1">
          <mxGeometry x="480" y="270" width="60" height="60" as="geometry" />
        </mxCell>
        <mxCell id="-PEql9k6udoX26iFVSh2-6" value="be" style="rounded=1;whiteSpace=wrap;html=1;" vertex="1" parent="1">
          <mxGeometry x="580" y="270" width="60" height="60" as="geometry" />
        </mxCell>
      </root>
    </mxGraphModel>
  </diagram>
</mxfile>
